
          <svg
            viewBox="0 0 60 60"
            x="0"
            y="0"
            width="60"
            height="60"
            class="image-svg-svg bn"
            style="overflow: visible; `color:red;"
          >
            <g
              hollow-target="iconBnFill"
              mask="url(#b03ae3fc-323f-4b2d-8994-974bef52c7f5)"
            >
              <g>
                <svg
                  xmlns="http://www.w3.org/2000/svg"
                  xmlns:xlink="http://www.w3.org/1999/xlink"
                  xml:space="preserve"
                  version="1.1"
                  style="shape-rendering: geometricprecision; text-rendering: geometricprecision; overflow: visible;"
                  viewBox="0 0 249 249"
                  x="0"
                  y="0"
                  fill-rule="evenodd"
                  clip-rule="evenodd"
                  width="60"
                  height="60"
                  filtersec="colorsf6647332265"
                  filter="url(#_WPhyKudnGRRGtcsWm1GK)"
                >
                  <g transform="scale(1, 1) skewX(0)">
                    <defs>
                      <filter id="_WPhyKudnGRRGtcsWm1GK">
                        <feColorMatrix
                          type="matrix"
                          values="0 0 0 0 0.38671875  0 0 0 0 0.25  0 0 0 0 0.26953125  0 0 0 1 0"
                        ></feColorMatrix>
                      </filter>
                    </defs>
                    <g>
                      <path
                        class="fil0"
                        d="M125 0c68,0 124,56 124,125 0,68 -56,124 -124,124 -69,0 -125,-56 -125,-124 0,-69 56,-125 125,-125z"
                      ></path>
                    </g>
                  </g>
                </svg>
              </g>{" "}
              <g filter="url(#colors9457930812)">
                <svg
                  xmlns="http://www.w3.org/2000/svg"
                  xmlns:xlink="http://www.w3.org/1999/xlink"
                  version="1.1"
                  x="8"
                  y="8"
                  viewBox="1.5 12.234000205993652 97 75.53199768066406"
                  enable-background="new 0 0 100 100"
                  xml:space="preserve"
                  width="44"
                  height="44"
                  class="image-svg-icon"
                >
                  <path d="M66.256,57.057H33.743c-1.104,0-2,0.896-2,2c0,11.965,9.184,18.225,18.257,18.225c9.072,0,18.256-6.26,18.256-18.225  C68.256,57.952,67.36,57.057,66.256,57.057z M50,73.281c-6.38,0-13.211-3.842-14.148-12.225h28.296  C63.21,69.439,56.379,73.281,50,73.281z M39.428,48.69c1.434,0,2.597-1.162,2.597-2.596c0-1.436-1.163-2.597-2.597-2.597  c-1.434,0-2.596,1.161-2.596,2.597C36.833,47.528,37.994,48.69,39.428,48.69z M60.202,48.69c1.433,0,2.594-1.162,2.594-2.596  c0-1.436-1.161-2.597-2.594-2.597c-1.436,0-2.599,1.161-2.599,2.597C57.604,47.528,58.767,48.69,60.202,48.69z M90.813,44.735  C86.493,25.81,69.583,12.234,50,12.234c-19.618,0-36.5,13.562-40.819,32.502C4.665,45.34,1.5,49.197,1.5,54.363  c0,5.632,3.756,9.719,8.931,9.719c2.72,0,5.04-1.137,6.637-3.025C20.279,76.292,33.823,87.766,50,87.766  s29.721-11.474,32.933-26.709c1.597,1.889,3.916,3.025,6.636,3.025c5.175,0,8.931-4.087,8.931-9.719  C98.5,49.195,95.333,45.337,90.813,44.735z M10.431,59.082c-2.901,0-3.931-2.542-3.931-4.719s1.029-4.719,3.931-4.719  s3.931,2.542,3.931,4.719S13.332,59.082,10.431,59.082z M50,82.766c-15.802,0-28.659-12.856-28.659-28.659  c0-15.802,12.856-28.658,28.659-28.658s28.659,12.856,28.659,28.658C78.659,69.909,65.803,82.766,50,82.766z M83.017,47.57  C79.965,32.129,66.323,20.449,50,20.449S20.036,32.129,16.984,47.57c-0.786-0.902-1.74-1.625-2.828-2.125  c3.951-16.462,18.71-28.21,35.844-28.21c17.104,0,31.894,11.758,35.844,28.209C84.757,45.944,83.803,46.667,83.017,47.57z   M89.569,59.082c-2.9,0-3.93-2.542-3.93-4.719s1.029-4.719,3.93-4.719c2.901,0,3.931,2.542,3.931,4.719S92.471,59.082,89.569,59.082  z"></path>
                </svg>
              </g>
            </g>
            <mask id="b03ae3fc-323f-4b2d-8994-974bef52c7f5">
              <g fill="white">
                <svg
                  xmlns="http://www.w3.org/2000/svg"
                  xmlns:xlink="http://www.w3.org/1999/xlink"
                  xml:space="preserve"
                  version="1.1"
                  style="shape-rendering: geometricprecision; text-rendering: geometricprecision; overflow: visible;"
                  viewBox="0 0 249 249"
                  x="0"
                  y="0"
                  fill-rule="evenodd"
                  clip-rule="evenodd"
                  width="60"
                  height="60"
                  filtersec="colorsf6647332265"
                >
                  <g transform="scale(1, 1) skewX(0)">
                    <defs></defs>
                    <g>
                      <path d="M125 0c68,0 124,56 124,125 0,68 -56,124 -124,124 -69,0 -125,-56 -125,-124 0,-69 56,-125 125,-125z"></path>
                    </g>
                  </g>
                </svg>
              </g>{" "}
              <g fill="black">
                <svg
                  xmlns="http://www.w3.org/2000/svg"
                  xmlns:xlink="http://www.w3.org/1999/xlink"
                  version="1.1"
                  x="8"
                  y="8"
                  viewBox="1.5 12.234000205993652 97 75.53199768066406"
                  enable-background="new 0 0 100 100"
                  xml:space="preserve"
                  width="44"
                  height="44"
                  class="image-svg-icon"
                >
                  <path d="M66.256,57.057H33.743c-1.104,0-2,0.896-2,2c0,11.965,9.184,18.225,18.257,18.225c9.072,0,18.256-6.26,18.256-18.225  C68.256,57.952,67.36,57.057,66.256,57.057z M50,73.281c-6.38,0-13.211-3.842-14.148-12.225h28.296  C63.21,69.439,56.379,73.281,50,73.281z M39.428,48.69c1.434,0,2.597-1.162,2.597-2.596c0-1.436-1.163-2.597-2.597-2.597  c-1.434,0-2.596,1.161-2.596,2.597C36.833,47.528,37.994,48.69,39.428,48.69z M60.202,48.69c1.433,0,2.594-1.162,2.594-2.596  c0-1.436-1.161-2.597-2.594-2.597c-1.436,0-2.599,1.161-2.599,2.597C57.604,47.528,58.767,48.69,60.202,48.69z M90.813,44.735  C86.493,25.81,69.583,12.234,50,12.234c-19.618,0-36.5,13.562-40.819,32.502C4.665,45.34,1.5,49.197,1.5,54.363  c0,5.632,3.756,9.719,8.931,9.719c2.72,0,5.04-1.137,6.637-3.025C20.279,76.292,33.823,87.766,50,87.766  s29.721-11.474,32.933-26.709c1.597,1.889,3.916,3.025,6.636,3.025c5.175,0,8.931-4.087,8.931-9.719  C98.5,49.195,95.333,45.337,90.813,44.735z M10.431,59.082c-2.901,0-3.931-2.542-3.931-4.719s1.029-4.719,3.931-4.719  s3.931,2.542,3.931,4.719S13.332,59.082,10.431,59.082z M50,82.766c-15.802,0-28.659-12.856-28.659-28.659  c0-15.802,12.856-28.658,28.659-28.658s28.659,12.856,28.659,28.658C78.659,69.909,65.803,82.766,50,82.766z M83.017,47.57  C79.965,32.129,66.323,20.449,50,20.449S20.036,32.129,16.984,47.57c-0.786-0.902-1.74-1.625-2.828-2.125  c3.951-16.462,18.71-28.21,35.844-28.21c17.104,0,31.894,11.758,35.844,28.209C84.757,45.944,83.803,46.667,83.017,47.57z   M89.569,59.082c-2.9,0-3.93-2.542-3.93-4.719s1.029-4.719,3.93-4.719c2.901,0,3.931,2.542,3.931,4.719S92.471,59.082,89.569,59.082  z"></path>
                </svg>
              </g>
            </mask>
          </svg>